<svg width="46" height="53" viewBox="0 0 46 53" fill="none" xmlns="http://www.w3.org/2000/svg">
<path d="M23.0899 0.0275879C21.3421 0.0275879 19.9301 1.48494 19.9301 3.28879V5.24552C12.722 6.75383 7.2912 13.3374 7.2912 21.2254V23.1414C7.2912 27.9313 5.58297 32.5581 2.50224 36.1454L1.77155 36.9913C0.94212 37.9493 0.744637 39.3251 1.24822 40.4971C1.7518 41.6691 2.88733 42.4233 4.13147 42.4233H42.0482C43.2924 42.4233 44.418 41.6691 44.9315 40.4971C45.445 39.3251 45.2376 37.9493 44.4082 36.9913L43.6775 36.1454C40.5967 32.5581 38.8885 27.9415 38.8885 23.1414V21.2254C38.8885 13.3374 33.4577 6.75383 26.2496 5.24552V3.28879C26.2496 1.48494 24.8376 0.0275879 23.0899 0.0275879ZM27.5629 50.3011C28.7477 49.0782 29.4093 47.417 29.4093 45.6845H23.0899H16.7704C16.7704 47.417 17.432 49.0782 18.6169 50.3011C19.8018 51.5241 21.4112 52.2069 23.0899 52.2069C24.7685 52.2069 26.378 51.5241 27.5629 50.3011Z" fill="#FFFCF5"/>
</svg>
