<svg width="33" height="45" viewBox="0 0 33 45" fill="none" xmlns="http://www.w3.org/2000/svg">
<path d="M18.7594 42.5433L18.7603 42.5421C20.7115 39.949 23.9177 35.5029 26.6385 30.816C27.9988 28.4727 29.2435 26.0595 30.1494 23.7807C31.0521 21.5099 31.6345 19.3334 31.6345 17.4749C31.6345 8.67338 24.9028 1.47758 16.5394 1.47758C8.17603 1.47758 1.44431 8.67338 1.44431 17.4749C1.44431 19.3334 2.02675 21.5099 2.92944 23.7807C3.83534 26.0595 5.08002 28.4727 6.44034 30.816C9.16112 35.5029 12.3673 39.949 14.3185 42.5421L14.3194 42.5433C15.4643 44.0557 17.6145 44.0557 18.7594 42.5433ZM16.5394 12.8482C17.6761 12.8482 18.7732 13.3275 19.5872 14.192C20.4023 15.0575 20.8654 16.2379 20.8654 17.4749C20.8654 18.7119 20.4023 19.8923 19.5872 20.7579C18.7732 21.6224 17.6761 22.1016 16.5394 22.1016C15.4027 22.1016 14.3056 21.6224 13.4916 20.7579C12.6765 19.8923 12.2135 18.7119 12.2135 17.4749C12.2135 16.2379 12.6765 15.0575 13.4916 14.192C14.3056 13.3275 15.4027 12.8482 16.5394 12.8482Z" fill="#CED1CA" stroke="#FFFBFB" stroke-width="1.05864"/>
</svg>
