<svg width="27" height="39" viewBox="0 0 27 39" fill="none" xmlns="http://www.w3.org/2000/svg">
<path d="M9.11333 11.0507V14.6253H18.5047V11.0507C18.5047 7.7591 16.4034 5.09307 13.809 5.09307C11.2146 5.09307 9.11333 7.7591 9.11333 11.0507ZM5.3568 14.6253V11.0507C5.3568 5.1303 9.14268 0.326965 13.809 0.326965C18.4753 0.326965 22.2612 5.1303 22.2612 11.0507V14.6253H23.2003C25.2723 14.6253 26.9569 16.7626 26.9569 19.3914V33.6897C26.9569 36.3185 25.2723 38.4558 23.2003 38.4558H4.41767C2.3457 38.4558 0.661133 36.3185 0.661133 33.6897V19.3914C0.661133 16.7626 2.3457 14.6253 4.41767 14.6253H5.3568Z" fill="#A4A4A4"/>
</svg>
