<svg width="47" height="47" viewBox="0 0 47 47" fill="none" xmlns="http://www.w3.org/2000/svg">
<path d="M10.5272 46.7889H0.981255V16.0475H10.5272V46.7889ZM5.74909 11.8541C2.69661 11.8541 0.220703 9.32572 0.220703 6.27317C0.220703 4.80692 0.803157 3.40072 1.83993 2.36392C2.8767 1.32713 4.28287 0.744659 5.74909 0.744659C7.21531 0.744659 8.62148 1.32713 9.65825 2.36392C10.695 3.40072 11.2775 4.80692 11.2775 6.27317C11.2775 9.32572 8.80055 11.8541 5.74909 11.8541ZM46.2546 46.7889H36.7292V31.8242C36.7292 28.2577 36.6573 23.684 31.7661 23.684C26.803 23.684 26.0425 27.5588 26.0425 31.5672V46.7889H16.5068V16.0475H25.6622V20.2409H25.7958C27.0702 17.8256 30.1834 15.2767 34.8279 15.2767C44.4889 15.2767 46.2649 21.6387 46.2649 29.9022V46.7889H46.2546Z" fill="#3E2DFF"/>
</svg>
