<svg width="27" height="40" viewBox="0 0 27 40" fill="none" xmlns="http://www.w3.org/2000/svg">
<path d="M8.57233 11.6461V15.2227H17.9691V11.6461C17.9691 8.35259 15.8666 5.685 13.2707 5.685C10.6749 5.685 8.57233 8.35259 8.57233 11.6461ZM4.81362 15.2227V11.6461C4.81362 5.72226 8.6017 0.916138 13.2707 0.916138C17.9397 0.916138 21.7278 5.72226 21.7278 11.6461V15.2227H22.6675C24.7407 15.2227 26.4262 17.3613 26.4262 19.9916V34.2982C26.4262 36.9285 24.7407 39.0671 22.6675 39.0671H3.87394C1.80078 39.0671 0.115234 36.9285 0.115234 34.2982V19.9916C0.115234 17.3613 1.80078 15.2227 3.87394 15.2227H4.81362Z" fill="#A4A4A4"/>
</svg>
