<svg width="47" height="47" viewBox="0 0 47 47" fill="none" xmlns="http://www.w3.org/2000/svg">
<path d="M11.2156 46.2306H1.67515V15.507H11.2156V46.2306ZM6.44022 11.316C3.38951 11.316 0.915039 8.78914 0.915039 5.73835C0.915039 4.27295 1.49716 2.86756 2.53333 1.83137C3.5695 0.795172 4.97485 0.213043 6.44022 0.213043C7.90559 0.213043 9.31095 0.795172 10.3471 1.83137C11.3833 2.86756 11.9654 4.27295 11.9654 5.73835C11.9654 8.78914 9.48991 11.316 6.44022 11.316ZM46.9223 46.2306H37.4024V31.2745C37.4024 27.7102 37.3305 23.1391 32.4422 23.1391C27.4819 23.1391 26.7218 27.0117 26.7218 31.0177V46.2306H17.1917V15.507H26.3418V19.698H26.4753C27.749 17.2841 30.8603 14.7366 35.5021 14.7366C45.1576 14.7366 46.9326 21.095 46.9326 29.3537V46.2306H46.9223Z" fill="#3E2DFF"/>
</svg>
