<svg width="38" height="29" viewBox="0 0 38 29" fill="none" xmlns="http://www.w3.org/2000/svg">
<path d="M5.26289 4.02144C4.63015 4.02144 4.11245 4.53914 4.11245 5.17188V6.76093L16.5156 16.9423C18.004 18.1646 20.1395 18.1646 21.6279 16.9423L34.0238 6.76093V5.17188C34.0238 4.53914 33.5061 4.02144 32.8734 4.02144H5.26289ZM4.11245 11.2261V23.5789C4.11245 24.2116 4.63015 24.7293 5.26289 24.7293H32.8734C33.5061 24.7293 34.0238 24.2116 34.0238 23.5789V11.2261L23.8137 19.6099C21.0527 21.8748 17.0764 21.8748 14.3226 19.6099L4.11245 11.2261ZM0.661133 5.17188C0.661133 2.63373 2.72473 0.570129 5.26289 0.570129H32.8734C35.4116 0.570129 37.4752 2.63373 37.4752 5.17188V23.5789C37.4752 26.117 35.4116 28.1806 32.8734 28.1806H5.26289C2.72473 28.1806 0.661133 26.117 0.661133 23.5789V5.17188Z" fill="#A4A4A4"/>
</svg>
