<svg width="37" height="29" viewBox="0 0 37 29" fill="none" xmlns="http://www.w3.org/2000/svg">
<path d="M4.71966 4.339C4.08655 4.339 3.56855 4.85699 3.56855 5.4901V7.08007L15.9789 17.2673C17.4681 18.4904 19.6049 18.4904 21.0941 17.2673L33.4973 7.08007V5.4901C33.4973 4.85699 32.9793 4.339 32.3462 4.339H4.71966ZM3.56855 11.5478V23.9078C3.56855 24.5409 4.08655 25.0589 4.71966 25.0589H32.3462C32.9793 25.0589 33.4973 24.5409 33.4973 23.9078V11.5478L23.2812 19.9365C20.5186 22.2027 16.5401 22.2027 13.7846 19.9365L3.56855 11.5478ZM0.115234 5.4901C0.115234 2.95048 2.18003 0.885681 4.71966 0.885681H32.3462C34.8858 0.885681 36.9506 2.95048 36.9506 5.4901V23.9078C36.9506 26.4474 34.8858 28.5122 32.3462 28.5122H4.71966C2.18003 28.5122 0.115234 26.4474 0.115234 23.9078V5.4901Z" fill="#A4A4A4"/>
</svg>
