<svg width="77" height="77" viewBox="0 0 77 77" fill="none" xmlns="http://www.w3.org/2000/svg">
<path d="M76.1148 38.63C76.1148 57.1944 62.7876 72.6238 45.2405 75.7708V50.3833H53.4712H54.0363L54.1215 49.8247L55.8137 38.7292L55.9291 37.9722H55.1634H45.2405V31.4255C45.2405 30.0027 45.5882 28.6787 46.413 27.7189C47.2219 26.7776 48.5743 26.089 50.7991 26.089H55.6111H56.2689V25.4312V15.9902V15.4357L55.7223 15.3419L55.6111 15.9902C55.7223 15.3419 55.7222 15.3419 55.7222 15.3419L55.7219 15.3418L55.7211 15.3417L55.7183 15.3412L55.708 15.3395L55.6689 15.3329C55.6348 15.3272 55.5846 15.319 55.5196 15.3086C55.3896 15.2877 55.2001 15.258 54.96 15.2225C54.4798 15.1514 53.7967 15.0568 52.9821 14.9623C51.3558 14.7735 49.1929 14.5833 47.0702 14.5833C42.5773 14.5833 38.7919 15.9551 36.1294 18.6367C33.4668 21.3184 32.0028 25.2338 32.0028 30.1734V37.9722H22.969H22.3112V38.63V49.7255V50.3833H22.969H32.0028V75.7708C14.4556 72.6238 1.12848 57.1944 1.12848 38.63C1.12848 17.786 17.9133 0.904723 38.6216 0.904723C59.3299 0.904723 76.1148 17.786 76.1148 38.63Z" fill="white" stroke="#CCCCCC" stroke-width="1.31555"/>
</svg>
