<svg width="77" height="77" viewBox="0 0 77 77" fill="none" xmlns="http://www.w3.org/2000/svg">
<path d="M75.8903 39.0834C75.8903 57.6371 62.5708 73.0575 45.0339 76.2027V50.8299H53.2599H53.8246L53.9098 50.2716L55.601 39.1825L55.7163 38.426H54.9511H45.0339V31.883C45.0339 30.4611 45.3814 29.1378 46.2057 28.1786C47.0142 27.2379 48.3658 26.5496 50.5893 26.5496H55.3985H56.0559V25.8922V16.4567V15.9025L55.5096 15.8088L55.3985 16.4567C55.5096 15.8088 55.5096 15.8088 55.5095 15.8087L55.5092 15.8087L55.5084 15.8086L55.5056 15.8081L55.4954 15.8063L55.4563 15.7998C55.4222 15.7941 55.3721 15.7859 55.3071 15.7754C55.1772 15.7546 54.9877 15.7249 54.7478 15.6894C54.2679 15.6184 53.5852 15.5239 52.771 15.4294C51.1456 15.2407 48.984 15.0506 46.8625 15.0506C42.3723 15.0506 38.5891 16.4216 35.9281 19.1016C33.267 21.7818 31.8038 25.695 31.8038 30.6316V38.426H22.7753H22.1179V39.0834V50.1725V50.8299H22.7753H31.8038V76.2027C14.2669 73.0575 0.947432 57.6371 0.947432 39.0834C0.947432 18.2514 17.7226 1.37996 38.4188 1.37996C59.1151 1.37996 75.8903 18.2514 75.8903 39.0834Z" fill="white" stroke="#CCCCCC" stroke-width="1.31479"/>
</svg>
