<svg width="50" height="51" viewBox="0 0 50 51" fill="none" xmlns="http://www.w3.org/2000/svg">
<path d="M49.9869 25.0601C49.9869 26.8179 48.6847 28.1948 47.2089 28.1948H44.4309L44.4916 43.8394C44.4916 44.103 44.4743 44.3667 44.4482 44.6304V46.2026C44.4482 48.3608 42.8943 50.1089 40.9757 50.1089H39.5867C39.4912 50.1089 39.3957 50.1089 39.3002 50.0991C39.1787 50.1089 39.0571 50.1089 38.9356 50.1089H36.1142H34.0307C32.1121 50.1089 30.5582 48.3608 30.5582 46.2026V43.8589V37.6089C30.5582 35.8804 29.3167 34.4839 27.7801 34.4839H22.2241C20.6875 34.4839 19.4461 35.8804 19.4461 37.6089V43.8589V46.2026C19.4461 48.3608 17.8921 50.1089 15.9736 50.1089H13.8901H11.1207C10.9905 50.1089 10.8603 50.0991 10.7301 50.0894C10.6259 50.0991 10.5217 50.1089 10.4176 50.1089H9.02855C7.10998 50.1089 5.55603 48.3608 5.55603 46.2026V35.2651C5.55603 35.1772 5.55603 35.0796 5.56471 34.9917V28.1948H2.77801C1.21538 28.1948 0 26.8276 0 25.0601C0 24.1812 0.260439 23.3999 0.868129 22.7163L23.127 0.890137C23.7347 0.206543 24.4292 0.108887 25.0369 0.108887C25.6445 0.108887 26.339 0.304199 26.8599 0.79248L49.0319 22.7163C49.7264 23.3999 50.0737 24.1812 49.9869 25.0601Z" fill="#FF0000"/>
</svg>
