<svg width="40" height="49" viewBox="0 0 40 49" fill="none" xmlns="http://www.w3.org/2000/svg">
<path d="M16.4383 38.9784C19.8067 38.9784 22.9217 37.7274 25.4843 35.5966L34.5563 46.5851L34.5564 46.5852C35.1078 47.2525 35.8538 47.6089 36.623 47.6089C37.3922 47.6089 38.1383 47.2525 38.6896 46.5852C39.7701 45.2775 39.7701 43.1868 38.6897 41.8791C38.6897 41.879 38.6897 41.879 38.6896 41.8789L29.5165 30.7681C31.3179 27.6547 32.3765 23.8711 32.3765 19.7936C32.3765 9.28951 25.3276 0.608887 16.4383 0.608887C7.5489 0.608887 0.5 9.28951 0.5 19.7936C0.5 30.2978 7.5489 38.9784 16.4383 38.9784ZM20.3043 31.2976C19.0747 31.914 17.7614 32.2293 16.4383 32.2293C15.1151 32.2293 13.8018 31.914 12.5722 31.2976C11.3421 30.6809 10.2177 29.7737 9.26613 28.622C8.31449 27.4703 7.55574 26.0981 7.03687 24.582C6.51801 23.0659 6.25023 21.4386 6.25023 19.7936C6.25023 18.1487 6.51801 16.5214 7.03687 15.0053C7.55574 13.4892 8.31449 12.117 9.26613 10.9653C10.2177 9.81364 11.3421 8.90635 12.5722 8.28969C13.8018 7.67327 15.1151 7.35804 16.4383 7.35804C17.7614 7.35804 19.0747 7.67327 20.3043 8.28969C21.5344 8.90635 22.6588 9.81364 23.6104 10.9653C24.562 12.117 25.3208 13.4892 25.8396 15.0053C26.3585 16.5214 26.6263 18.1487 26.6263 19.7936C26.6263 21.4386 26.3585 23.0659 25.8396 24.582C25.3208 26.0981 24.562 27.4703 23.6104 28.622C22.6588 29.7737 21.5344 30.6809 20.3043 31.2976Z" fill="#FF0000" stroke="#FF0000"/>
</svg>
