<svg width="27" height="26" viewBox="0 0 27 26" fill="none" xmlns="http://www.w3.org/2000/svg">
<path d="M21.7117 10.324C21.7117 12.6022 20.9576 14.7067 19.6874 16.4142L26.0944 22.7029C26.727 23.3233 26.727 24.3309 26.0944 24.9513C25.4618 25.5718 24.4345 25.5718 23.8018 24.9513L17.3948 18.6626C15.6539 19.9134 13.508 20.648 11.1851 20.648C5.37017 20.648 0.658508 16.027 0.658508 10.324C0.658508 4.62098 5.37017 0 11.1851 0C17 0 21.7117 4.62098 21.7117 10.324ZM11.1851 17.4714C12.1421 17.4714 13.0898 17.2865 13.974 16.9273C14.8581 16.5681 15.6615 16.0417 16.3383 15.378C17.015 14.7143 17.5518 13.9263 17.918 13.0592C18.2843 12.192 18.4728 11.2626 18.4728 10.324C18.4728 9.38539 18.2843 8.45598 17.918 7.58882C17.5518 6.72165 17.015 5.93373 16.3383 5.27004C15.6615 4.60634 14.8581 4.07987 13.974 3.72068C13.0898 3.36149 12.1421 3.17662 11.1851 3.17662C10.2281 3.17662 9.28043 3.36149 8.39625 3.72068C7.51207 4.07987 6.70868 4.60634 6.03196 5.27004C5.35524 5.93373 4.81844 6.72165 4.4522 7.58882C4.08596 8.45598 3.89746 9.38539 3.89746 10.324C3.89746 11.2626 4.08596 12.192 4.4522 13.0592C4.81844 13.9263 5.35524 14.7143 6.03196 15.378C6.70868 16.0417 7.51207 16.5681 8.39625 16.9273C9.28043 17.2865 10.2281 17.4714 11.1851 17.4714Z" fill="#817F7F"/>
</svg>
