<svg width="50" height="51" viewBox="0 0 50 51" fill="none" xmlns="http://www.w3.org/2000/svg">
<path d="M7.5 12.6089C7.5 9.29368 8.55357 6.11426 10.4289 3.77005C12.3043 1.42585 14.8478 0.108887 17.5 0.108887C20.1522 0.108887 22.6957 1.42585 24.5711 3.77005C26.4464 6.11426 27.5 9.29368 27.5 12.6089C27.5 15.9241 26.4464 19.1035 24.5711 21.4477C22.6957 23.7919 20.1522 25.1089 17.5 25.1089C14.8478 25.1089 12.3043 23.7919 10.4289 21.4477C8.55357 19.1035 7.5 15.9241 7.5 12.6089ZM0 47.2085C0 37.5894 6.23438 29.7964 13.9297 29.7964H21.0703C28.7656 29.7964 35 37.5894 35 47.2085C35 48.8101 33.9609 50.1089 32.6797 50.1089H2.32031C1.03906 50.1089 0 48.8101 0 47.2085ZM39.375 30.5776V24.3276H34.375C33.3359 24.3276 32.5 23.2827 32.5 21.9839C32.5 20.6851 33.3359 19.6401 34.375 19.6401H39.375V13.3901C39.375 12.0913 40.2109 11.0464 41.25 11.0464C42.2891 11.0464 43.125 12.0913 43.125 13.3901V19.6401H48.125C49.1641 19.6401 50 20.6851 50 21.9839C50 23.2827 49.1641 24.3276 48.125 24.3276H43.125V30.5776C43.125 31.8765 42.2891 32.9214 41.25 32.9214C40.2109 32.9214 39.375 31.8765 39.375 30.5776Z" fill="#FF0202"/>
</svg>
