<svg width="50" height="51" viewBox="0 0 50 51" fill="none" xmlns="http://www.w3.org/2000/svg">
<path d="M7.22595 27.2318L7.22933 27.2354L24.8755 46.4997C24.8756 46.4998 24.8757 46.4999 24.8758 46.5001C24.9333 46.5627 24.9782 46.5913 25 46.6028C25.0218 46.5913 25.0667 46.5627 25.1242 46.5001C25.1243 46.4999 25.1244 46.4998 25.1245 46.4997L42.7707 27.2354L42.774 27.2317C45.0968 24.7032 46.5 21.0385 46.5 17.0952V16.4329C46.5 9.73579 42.4002 4.69054 37.6703 3.76683L7.22595 27.2318ZM7.22595 27.2318C4.90319 24.7032 3.5 21.0385 3.5 17.0952V16.4329C3.5 9.73579 7.59983 4.69054 12.3297 3.76683L7.22595 27.2318ZM25 11.6434L22.34 8.53291L21.1681 7.16258C18.7217 4.30178 15.4254 3.16386 12.3306 3.76665L25 11.6434ZM25 11.6434L27.66 8.53291M25 11.6434L27.66 8.53291M27.66 8.53291L28.8319 7.16258C31.2783 4.30178 34.5746 3.16386 37.6694 3.76665L27.66 8.53291Z" fill="white" stroke="#FF0000" stroke-width="7"/>
</svg>
