<svg width="26" height="26" viewBox="0 0 26 26" fill="none" xmlns="http://www.w3.org/2000/svg">
<path d="M21.126 10.324C21.126 12.6022 20.3694 14.7067 19.0947 16.4142L25.5239 22.7029C26.1587 23.3233 26.1587 24.3309 25.5239 24.9513C24.8891 25.5717 23.8582 25.5717 23.2234 24.9513L16.7942 18.6626C15.0472 19.9134 12.894 20.648 10.563 20.648C4.72797 20.648 0 16.027 0 10.324C0 4.62097 4.72797 -1.52588e-05 10.563 -1.52588e-05C16.3981 -1.52588e-05 21.126 4.62097 21.126 10.324ZM10.563 17.4714C11.5234 17.4714 12.4743 17.2865 13.3615 16.9273C14.2488 16.5681 15.0549 16.0416 15.734 15.378C16.4131 14.7143 16.9517 13.9263 17.3192 13.0592C17.6867 12.192 17.8759 11.2626 17.8759 10.324C17.8759 9.38538 17.6867 8.45596 17.3192 7.5888C16.9517 6.72164 16.4131 5.93372 15.734 5.27002C15.0549 4.60633 14.2488 4.07985 13.3615 3.72066C12.4743 3.36147 11.5234 3.1766 10.563 3.1766C9.60268 3.1766 8.65175 3.36147 7.76451 3.72066C6.87727 4.07985 6.07111 4.60633 5.39205 5.27002C4.71299 5.93372 4.17432 6.72164 3.80682 7.5888C3.43931 8.45596 3.25016 9.38538 3.25016 10.324C3.25016 11.2626 3.43931 12.192 3.80682 13.0592C4.17432 13.9263 4.71299 14.7143 5.39205 15.378C6.07111 16.0416 6.87727 16.5681 7.76451 16.9273C8.65175 17.2865 9.60268 17.4714 10.563 17.4714Z" fill="#817F7F"/>
</svg>
